# xmcd
#
# Track frame offsets: 
#        150
#        11535
#        23037
#        32400
#        50060
#        61802
#        78000
#        87885
#        97397
#        109682
#        121505
#        135627
#        151212
#        160497
#        170317
#        193427
#        202697
#        213815
#        228180
#        242807
#
# Disc length: 3473 seconds
#
# Revision: 3
# Processed by: cddbd v1.5.2PL0 Copyright (c) Steve Scherf et al.
# Submitted via: ExactAudioCopy v0.99pb4
#
DISCID=f50d8f14
DTITLE=The Byrds - 20 Essential Tracks
DYEAR=1992
DGENRE=Folk/Rock
TTITLE0=Mr Tambourine Man
TTITLE1=I'll Feel A Whole Lot Better
TTITLE2=All I Really Want To Do
TTITLE3=Turn! Turn! Turn!
TTITLE4=5D
TTITLE5=Eight Miles High
TTITLE6=Mr Spaceman
TTITLE7=So You Want To Be A Rock'n'Roll Star
TTITLE8=Have You Seen Her Face
TTITLE9=Lady Friend
TTITLE10=My Back Pages
TTITLE11=Goin' Back
TTITLE12=Ballad Of Easy Rider
TTITLE13=Jesus Is Just Alright
TTITLE14=Chestnut Mare
TTITLE15=I Wanna Grow Up To Be A Politician
TTITLE16=He Was A Friend Of Mine
TTITLE17=Paths Of Victory
TTITLE18=From A Distance
TTITLE19=Love That Never Dies
EXTD=
EXTT0=
EXTT1=
EXTT2=
EXTT3=
EXTT4=
EXTT5=
EXTT6=
EXTT7=
EXTT8=
EXTT9=
EXTT10=
EXTT11=
EXTT12=
EXTT13=
EXTT14=
EXTT15=
EXTT16=
EXTT17=
EXTT18=
EXTT19=
PLAYORDER=
